<?xml version="1.0" encoding="utf-8" standalone="no"?>
<!DOCTYPE svg PUBLIC "-//W3C//DTD SVG 1.1//EN"
  "http://www.w3.org/Graphics/SVG/1.1/DTD/svg11.dtd">
<svg xmlns:xlink="http://www.w3.org/1999/xlink" width="856.442812pt" height="495.034375pt" viewBox="0 0 856.442812 495.034375" xmlns="http://www.w3.org/2000/svg" version="1.1">
 <metadata>
  <rdf:RDF xmlns:dc="http://purl.org/dc/elements/1.1/" xmlns:cc="http://creativecommons.org/ns#" xmlns:rdf="http://www.w3.org/1999/02/22-rdf-syntax-ns#">
   <cc:Work>
    <dc:type rdf:resource="http://purl.org/dc/dcmitype/StillImage"/>
    <dc:date>2026-03-04T10:23:19.075293</dc:date>
    <dc:format>image/svg+xml</dc:format>
    <dc:creator>
     <cc:Agent>
      <dc:title>Matplotlib v3.8.4, https://matplotlib.org/</dc:title>
     </cc:Agent>
    </dc:creator>
   </cc:Work>
  </rdf:RDF>
 </metadata>
 <defs>
  <style type="text/css">*{stroke-linejoin: round; stroke-linecap: butt}</style>
 </defs>
 <g id="figure_1">
  <g id="patch_1">
   <path d="M 0 495.034375 
L 856.442812 495.034375 
L 856.442812 0 
L 0 0 
z
" style="fill: #ffffff"/>
  </g>
  <g id="axes_1">
   <g id="patch_2">
    <path d="M 48.982813 292.171458 
L 849.242813 292.171458 
L 849.242813 22.318125 
L 48.982813 22.318125 
z
" style="fill: #ffffff"/>
   </g>
   <g id="matplotlib.axis_1">
    <g id="xtick_1">
     <g id="line2d_1">
      <defs>
       <path id="maadaf6b012" d="M 0 0 
L 0 3.5 
" style="stroke: #000000; stroke-width: 0.8"/>
      </defs>
      <g>
       <use xlink:href="#maadaf6b012" x="85.358267" y="292.171458" style="stroke: #000000; stroke-width: 0.8"/>
      </g>
     </g>
    </g>
    <g id="xtick_2">
     <g id="line2d_2">
      <g>
       <use xlink:href="#maadaf6b012" x="195.586917" y="292.171458" style="stroke: #000000; stroke-width: 0.8"/>
      </g>
     </g>
    </g>
    <g id="xtick_3">
     <g id="line2d_3">
      <g>
       <use xlink:href="#maadaf6b012" x="305.815567" y="292.171458" style="stroke: #000000; stroke-width: 0.8"/>
      </g>
     </g>
    </g>
    <g id="xtick_4">
     <g id="line2d_4">
      <g>
       <use xlink:href="#maadaf6b012" x="416.044217" y="292.171458" style="stroke: #000000; stroke-width: 0.8"/>
      </g>
     </g>
    </g>
    <g id="xtick_5">
     <g id="line2d_5">
      <g>
       <use xlink:href="#maadaf6b012" x="526.272868" y="292.171458" style="stroke: #000000; stroke-width: 0.8"/>
      </g>
     </g>
    </g>
    <g id="xtick_6">
     <g id="line2d_6">
      <g>
       <use xlink:href="#maadaf6b012" x="636.501518" y="292.171458" style="stroke: #000000; stroke-width: 0.8"/>
      </g>
     </g>
    </g>
    <g id="xtick_7">
     <g id="line2d_7">
      <g>
       <use xlink:href="#maadaf6b012" x="746.730168" y="292.171458" style="stroke: #000000; stroke-width: 0.8"/>
      </g>
     </g>
    </g>
   </g>
   <g id="matplotlib.axis_2">
    <g id="ytick_1">
     <g id="line2d_8">
      <defs>
       <path id="me7dcd6138f" d="M 0 0 
L -3.5 0 
" style="stroke: #000000; stroke-width: 0.8"/>
      </defs>
      <g>
       <use xlink:href="#me7dcd6138f" x="48.982813" y="269.683681" style="stroke: #000000; stroke-width: 0.8"/>
      </g>
     </g>
     <g id="text_1">
      <!-- 0.0 -->
      <g transform="translate(26.079688 273.482899) scale(0.1 -0.1)">
       <defs>
        <path id="DejaVuSans-30" d="M 2034 4250 
Q 1547 4250 1301 3770 
Q 1056 3291 1056 2328 
Q 1056 1369 1301 889 
Q 1547 409 2034 409 
Q 2525 409 2770 889 
Q 3016 1369 3016 2328 
Q 3016 3291 2770 3770 
Q 2525 4250 2034 4250 
z
M 2034 4750 
Q 2819 4750 3233 4129 
Q 3647 3509 3647 2328 
Q 3647 1150 3233 529 
Q 2819 -91 2034 -91 
Q 1250 -91 836 529 
Q 422 1150 422 2328 
Q 422 3509 836 4129 
Q 1250 4750 2034 4750 
z
" transform="scale(0.015625)"/>
        <path id="DejaVuSans-2e" d="M 684 794 
L 1344 794 
L 1344 0 
L 684 0 
L 684 794 
z
" transform="scale(0.015625)"/>
       </defs>
       <use xlink:href="#DejaVuSans-30"/>
       <use xlink:href="#DejaVuSans-2e" x="63.623047"/>
       <use xlink:href="#DejaVuSans-30" x="95.410156"/>
      </g>
     </g>
    </g>
    <g id="ytick_2">
     <g id="line2d_9">
      <g>
       <use xlink:href="#me7dcd6138f" x="48.982813" y="224.708125" style="stroke: #000000; stroke-width: 0.8"/>
      </g>
     </g>
     <g id="text_2">
      <!-- 0.2 -->
      <g transform="translate(26.079688 228.507344) scale(0.1 -0.1)">
       <defs>
        <path id="DejaVuSans-32" d="M 1228 531 
L 3431 531 
L 3431 0 
L 469 0 
L 469 531 
Q 828 903 1448 1529 
Q 2069 2156 2228 2338 
Q 2531 2678 2651 2914 
Q 2772 3150 2772 3378 
Q 2772 3750 2511 3984 
Q 2250 4219 1831 4219 
Q 1534 4219 1204 4116 
Q 875 4013 500 3803 
L 500 4441 
Q 881 4594 1212 4672 
Q 1544 4750 1819 4750 
Q 2544 4750 2975 4387 
Q 3406 4025 3406 3419 
Q 3406 3131 3298 2873 
Q 3191 2616 2906 2266 
Q 2828 2175 2409 1742 
Q 1991 1309 1228 531 
z
" transform="scale(0.015625)"/>
       </defs>
       <use xlink:href="#DejaVuSans-30"/>
       <use xlink:href="#DejaVuSans-2e" x="63.623047"/>
       <use xlink:href="#DejaVuSans-32" x="95.410156"/>
      </g>
     </g>
    </g>
    <g id="ytick_3">
     <g id="line2d_10">
      <g>
       <use xlink:href="#me7dcd6138f" x="48.982813" y="179.732569" style="stroke: #000000; stroke-width: 0.8"/>
      </g>
     </g>
     <g id="text_3">
      <!-- 0.4 -->
      <g transform="translate(26.079688 183.531788) scale(0.1 -0.1)">
       <defs>
        <path id="DejaVuSans-34" d="M 2419 4116 
L 825 1625 
L 2419 1625 
L 2419 4116 
z
M 2253 4666 
L 3047 4666 
L 3047 1625 
L 3713 1625 
L 3713 1100 
L 3047 1100 
L 3047 0 
L 2419 0 
L 2419 1100 
L 313 1100 
L 313 1709 
L 2253 4666 
z
" transform="scale(0.015625)"/>
       </defs>
       <use xlink:href="#DejaVuSans-30"/>
       <use xlink:href="#DejaVuSans-2e" x="63.623047"/>
       <use xlink:href="#DejaVuSans-34" x="95.410156"/>
      </g>
     </g>
    </g>
    <g id="ytick_4">
     <g id="line2d_11">
      <g>
       <use xlink:href="#me7dcd6138f" x="48.982813" y="134.757014" style="stroke: #000000; stroke-width: 0.8"/>
      </g>
     </g>
     <g id="text_4">
      <!-- 0.6 -->
      <g transform="translate(26.079688 138.556233) scale(0.1 -0.1)">
       <defs>
        <path id="DejaVuSans-36" d="M 2113 2584 
Q 1688 2584 1439 2293 
Q 1191 2003 1191 1497 
Q 1191 994 1439 701 
Q 1688 409 2113 409 
Q 2538 409 2786 701 
Q 3034 994 3034 1497 
Q 3034 2003 2786 2293 
Q 2538 2584 2113 2584 
z
M 3366 4563 
L 3366 3988 
Q 3128 4100 2886 4159 
Q 2644 4219 2406 4219 
Q 1781 4219 1451 3797 
Q 1122 3375 1075 2522 
Q 1259 2794 1537 2939 
Q 1816 3084 2150 3084 
Q 2853 3084 3261 2657 
Q 3669 2231 3669 1497 
Q 3669 778 3244 343 
Q 2819 -91 2113 -91 
Q 1303 -91 875 529 
Q 447 1150 447 2328 
Q 447 3434 972 4092 
Q 1497 4750 2381 4750 
Q 2619 4750 2861 4703 
Q 3103 4656 3366 4563 
z
" transform="scale(0.015625)"/>
       </defs>
       <use xlink:href="#DejaVuSans-30"/>
       <use xlink:href="#DejaVuSans-2e" x="63.623047"/>
       <use xlink:href="#DejaVuSans-36" x="95.410156"/>
      </g>
     </g>
    </g>
    <g id="ytick_5">
     <g id="line2d_12">
      <g>
       <use xlink:href="#me7dcd6138f" x="48.982813" y="89.781458" style="stroke: #000000; stroke-width: 0.8"/>
      </g>
     </g>
     <g id="text_5">
      <!-- 0.8 -->
      <g transform="translate(26.079688 93.580677) scale(0.1 -0.1)">
       <defs>
        <path id="DejaVuSans-38" d="M 2034 2216 
Q 1584 2216 1326 1975 
Q 1069 1734 1069 1313 
Q 1069 891 1326 650 
Q 1584 409 2034 409 
Q 2484 409 2743 651 
Q 3003 894 3003 1313 
Q 3003 1734 2745 1975 
Q 2488 2216 2034 2216 
z
M 1403 2484 
Q 997 2584 770 2862 
Q 544 3141 544 3541 
Q 544 4100 942 4425 
Q 1341 4750 2034 4750 
Q 2731 4750 3128 4425 
Q 3525 4100 3525 3541 
Q 3525 3141 3298 2862 
Q 3072 2584 2669 2484 
Q 3125 2378 3379 2068 
Q 3634 1759 3634 1313 
Q 3634 634 3220 271 
Q 2806 -91 2034 -91 
Q 1263 -91 848 271 
Q 434 634 434 1313 
Q 434 1759 690 2068 
Q 947 2378 1403 2484 
z
M 1172 3481 
Q 1172 3119 1398 2916 
Q 1625 2713 2034 2713 
Q 2441 2713 2670 2916 
Q 2900 3119 2900 3481 
Q 2900 3844 2670 4047 
Q 2441 4250 2034 4250 
Q 1625 4250 1398 4047 
Q 1172 3844 1172 3481 
z
" transform="scale(0.015625)"/>
       </defs>
       <use xlink:href="#DejaVuSans-30"/>
       <use xlink:href="#DejaVuSans-2e" x="63.623047"/>
       <use xlink:href="#DejaVuSans-38" x="95.410156"/>
      </g>
     </g>
    </g>
    <g id="ytick_6">
     <g id="line2d_13">
      <g>
       <use xlink:href="#me7dcd6138f" x="48.982813" y="44.805903" style="stroke: #000000; stroke-width: 0.8"/>
      </g>
     </g>
     <g id="text_6">
      <!-- 1.0 -->
      <g transform="translate(26.079688 48.605122) scale(0.1 -0.1)">
       <defs>
        <path id="DejaVuSans-31" d="M 794 531 
L 1825 531 
L 1825 4091 
L 703 3866 
L 703 4441 
L 1819 4666 
L 2450 4666 
L 2450 531 
L 3481 531 
L 3481 0 
L 794 0 
L 794 531 
z
" transform="scale(0.015625)"/>
       </defs>
       <use xlink:href="#DejaVuSans-31"/>
       <use xlink:href="#DejaVuSans-2e" x="63.623047"/>
       <use xlink:href="#DejaVuSans-30" x="95.410156"/>
      </g>
     </g>
    </g>
    <g id="text_7">
     <!-- prob / action -->
     <g transform="translate(20 188.848698) rotate(-90) scale(0.1 -0.1)">
      <defs>
       <path id="DejaVuSans-70" d="M 1159 525 
L 1159 -1331 
L 581 -1331 
L 581 3500 
L 1159 3500 
L 1159 2969 
Q 1341 3281 1617 3432 
Q 1894 3584 2278 3584 
Q 2916 3584 3314 3078 
Q 3713 2572 3713 1747 
Q 3713 922 3314 415 
Q 2916 -91 2278 -91 
Q 1894 -91 1617 61 
Q 1341 213 1159 525 
z
M 3116 1747 
Q 3116 2381 2855 2742 
Q 2594 3103 2138 3103 
Q 1681 3103 1420 2742 
Q 1159 2381 1159 1747 
Q 1159 1113 1420 752 
Q 1681 391 2138 391 
Q 2594 391 2855 752 
Q 3116 1113 3116 1747 
z
" transform="scale(0.015625)"/>
       <path id="DejaVuSans-72" d="M 2631 2963 
Q 2534 3019 2420 3045 
Q 2306 3072 2169 3072 
Q 1681 3072 1420 2755 
Q 1159 2438 1159 1844 
L 1159 0 
L 581 0 
L 581 3500 
L 1159 3500 
L 1159 2956 
Q 1341 3275 1631 3429 
Q 1922 3584 2338 3584 
Q 2397 3584 2469 3576 
Q 2541 3569 2628 3553 
L 2631 2963 
z
" transform="scale(0.015625)"/>
       <path id="DejaVuSans-6f" d="M 1959 3097 
Q 1497 3097 1228 2736 
Q 959 2375 959 1747 
Q 959 1119 1226 758 
Q 1494 397 1959 397 
Q 2419 397 2687 759 
Q 2956 1122 2956 1747 
Q 2956 2369 2687 2733 
Q 2419 3097 1959 3097 
z
M 1959 3584 
Q 2709 3584 3137 3096 
Q 3566 2609 3566 1747 
Q 3566 888 3137 398 
Q 2709 -91 1959 -91 
Q 1206 -91 779 398 
Q 353 888 353 1747 
Q 353 2609 779 3096 
Q 1206 3584 1959 3584 
z
" transform="scale(0.015625)"/>
       <path id="DejaVuSans-62" d="M 3116 1747 
Q 3116 2381 2855 2742 
Q 2594 3103 2138 3103 
Q 1681 3103 1420 2742 
Q 1159 2381 1159 1747 
Q 1159 1113 1420 752 
Q 1681 391 2138 391 
Q 2594 391 2855 752 
Q 3116 1113 3116 1747 
z
M 1159 2969 
Q 1341 3281 1617 3432 
Q 1894 3584 2278 3584 
Q 2916 3584 3314 3078 
Q 3713 2572 3713 1747 
Q 3713 922 3314 415 
Q 2916 -91 2278 -91 
Q 1894 -91 1617 61 
Q 1341 213 1159 525 
L 1159 0 
L 581 0 
L 581 4863 
L 1159 4863 
L 1159 2969 
z
" transform="scale(0.015625)"/>
       <path id="DejaVuSans-20" transform="scale(0.015625)"/>
       <path id="DejaVuSans-2f" d="M 1625 4666 
L 2156 4666 
L 531 -594 
L 0 -594 
L 1625 4666 
z
" transform="scale(0.015625)"/>
       <path id="DejaVuSans-61" d="M 2194 1759 
Q 1497 1759 1228 1600 
Q 959 1441 959 1056 
Q 959 750 1161 570 
Q 1363 391 1709 391 
Q 2188 391 2477 730 
Q 2766 1069 2766 1631 
L 2766 1759 
L 2194 1759 
z
M 3341 1997 
L 3341 0 
L 2766 0 
L 2766 531 
Q 2569 213 2275 61 
Q 1981 -91 1556 -91 
Q 1019 -91 701 211 
Q 384 513 384 1019 
Q 384 1609 779 1909 
Q 1175 2209 1959 2209 
L 2766 2209 
L 2766 2266 
Q 2766 2663 2505 2880 
Q 2244 3097 1772 3097 
Q 1472 3097 1187 3025 
Q 903 2953 641 2809 
L 641 3341 
Q 956 3463 1253 3523 
Q 1550 3584 1831 3584 
Q 2591 3584 2966 3190 
Q 3341 2797 3341 1997 
z
" transform="scale(0.015625)"/>
       <path id="DejaVuSans-63" d="M 3122 3366 
L 3122 2828 
Q 2878 2963 2633 3030 
Q 2388 3097 2138 3097 
Q 1578 3097 1268 2742 
Q 959 2388 959 1747 
Q 959 1106 1268 751 
Q 1578 397 2138 397 
Q 2388 397 2633 464 
Q 2878 531 3122 666 
L 3122 134 
Q 2881 22 2623 -34 
Q 2366 -91 2075 -91 
Q 1284 -91 818 406 
Q 353 903 353 1747 
Q 353 2603 823 3093 
Q 1294 3584 2113 3584 
Q 2378 3584 2631 3529 
Q 2884 3475 3122 3366 
z
" transform="scale(0.015625)"/>
       <path id="DejaVuSans-74" d="M 1172 4494 
L 1172 3500 
L 2356 3500 
L 2356 3053 
L 1172 3053 
L 1172 1153 
Q 1172 725 1289 603 
Q 1406 481 1766 481 
L 2356 481 
L 2356 0 
L 1766 0 
Q 1100 0 847 248 
Q 594 497 594 1153 
L 594 3053 
L 172 3053 
L 172 3500 
L 594 3500 
L 594 4494 
L 1172 4494 
z
" transform="scale(0.015625)"/>
       <path id="DejaVuSans-69" d="M 603 3500 
L 1178 3500 
L 1178 0 
L 603 0 
L 603 3500 
z
M 603 4863 
L 1178 4863 
L 1178 4134 
L 603 4134 
L 603 4863 
z
" transform="scale(0.015625)"/>
       <path id="DejaVuSans-6e" d="M 3513 2113 
L 3513 0 
L 2938 0 
L 2938 2094 
Q 2938 2591 2744 2837 
Q 2550 3084 2163 3084 
Q 1697 3084 1428 2787 
Q 1159 2491 1159 1978 
L 1159 0 
L 581 0 
L 581 3500 
L 1159 3500 
L 1159 2956 
Q 1366 3272 1645 3428 
Q 1925 3584 2291 3584 
Q 2894 3584 3203 3211 
Q 3513 2838 3513 2113 
z
" transform="scale(0.015625)"/>
      </defs>
      <use xlink:href="#DejaVuSans-70"/>
      <use xlink:href="#DejaVuSans-72" x="63.476562"/>
      <use xlink:href="#DejaVuSans-6f" x="102.339844"/>
      <use xlink:href="#DejaVuSans-62" x="163.521484"/>
      <use xlink:href="#DejaVuSans-20" x="226.998047"/>
      <use xlink:href="#DejaVuSans-2f" x="258.785156"/>
      <use xlink:href="#DejaVuSans-20" x="292.476562"/>
      <use xlink:href="#DejaVuSans-61" x="324.263672"/>
      <use xlink:href="#DejaVuSans-63" x="385.542969"/>
      <use xlink:href="#DejaVuSans-74" x="440.523438"/>
      <use xlink:href="#DejaVuSans-69" x="479.732422"/>
      <use xlink:href="#DejaVuSans-6f" x="507.515625"/>
      <use xlink:href="#DejaVuSans-6e" x="568.697266"/>
     </g>
    </g>
   </g>
   <g id="line2d_14">
    <path d="M 85.358267 258.133971 
L 107.403997 257.984115 
L 129.449727 257.761231 
L 151.495457 257.430222 
L 173.541187 256.939713 
L 195.586917 256.215207 
L 217.632647 255.150202 
L 239.678377 253.595666 
L 261.724107 251.349778 
L 283.769837 248.152762 
L 305.815567 243.696443 
L 327.861297 237.663359 
L 349.907027 229.810294 
L 371.952757 220.094974 
L 393.998487 208.804367 
L 416.044217 196.598403 
L 438.089947 184.392439 
L 460.135678 173.101831 
L 482.181408 163.386512 
L 504.227138 155.533447 
L 526.272868 149.500362 
L 548.318598 145.044044 
L 570.364328 141.847027 
L 592.410058 139.601139 
L 614.455788 138.046604 
L 636.501518 136.981598 
L 658.547248 136.257092 
L 680.592978 135.766583 
L 702.638708 135.435575 
L 724.684438 135.212691 
L 746.730168 135.062835 
L 768.775898 134.962179 
L 790.821628 134.894615 
L 812.867358 134.849285 
" clip-path="url(#pd52d2db359)" style="fill: none; stroke: #1f77b4; stroke-width: 1.5; stroke-linecap: square"/>
   </g>
   <g id="line2d_15">
    <path d="M 85.358267 243.757909 
L 107.403997 242.111991 
L 129.449727 239.709527 
L 151.495457 236.238609 
L 173.541187 231.297765 
L 195.586917 224.410728 
L 217.632647 215.08687 
L 239.678377 202.950315 
L 261.724107 187.935731 
L 283.769837 170.48661 
L 305.815567 151.622847 
L 327.861297 132.759085 
L 349.907027 115.309964 
L 371.952757 100.295379 
L 393.998487 88.158824 
L 416.044217 78.834967 
L 438.089947 71.947929 
L 460.135678 67.007085 
L 482.181408 63.536167 
L 504.227138 61.133704 
L 526.272868 59.487786 
L 548.318598 58.368095 
L 570.364328 57.610035 
L 592.410058 57.098476 
L 614.455788 56.75402 
L 636.501518 56.522424 
L 658.547248 56.366865 
L 680.592978 56.262449 
L 702.638708 56.192392 
L 724.684438 56.145403 
L 746.730168 56.113893 
L 768.775898 56.092765 
L 790.821628 56.078599 
L 812.867358 56.069103 
" clip-path="url(#pd52d2db359)" style="fill: none; stroke-dasharray: 5.55,2.4; stroke-dashoffset: 0; stroke: #ff7f0e; stroke-width: 1.5"/>
   </g>
   <g id="line2d_16">
    <path d="M 85.358267 269.683681 
L 107.403997 269.683681 
L 107.403997 269.683681 
L 129.449727 269.683681 
L 129.449727 269.683681 
L 151.495457 269.683681 
L 151.495457 269.683681 
L 173.541187 269.683681 
L 173.541187 269.683681 
L 195.586917 269.683681 
L 195.586917 269.683681 
L 217.632647 269.683681 
L 217.632647 269.683681 
L 239.678377 269.683681 
L 239.678377 269.683681 
L 261.724107 269.683681 
L 261.724107 269.683681 
L 283.769837 269.683681 
L 283.769837 269.683681 
L 305.815567 269.683681 
L 305.815567 269.683681 
L 327.861297 269.683681 
L 327.861297 269.683681 
L 349.907027 269.683681 
L 349.907027 269.683681 
L 371.952757 269.683681 
L 371.952757 269.683681 
L 393.998487 269.683681 
L 393.998487 269.683681 
L 416.044217 269.683681 
L 416.044217 269.683681 
L 438.089947 269.683681 
L 438.089947 269.683681 
L 460.135678 269.683681 
L 460.135678 269.683681 
L 482.181408 269.683681 
L 482.181408 44.805903 
L 504.227138 44.805903 
L 504.227138 44.805903 
L 526.272868 44.805903 
L 526.272868 44.805903 
L 548.318598 44.805903 
L 548.318598 44.805903 
L 570.364328 44.805903 
L 570.364328 269.683681 
L 592.410058 269.683681 
L 592.410058 269.683681 
L 614.455788 269.683681 
L 614.455788 269.683681 
L 636.501518 269.683681 
L 636.501518 44.805903 
L 658.547248 44.805903 
L 658.547248 269.683681 
L 680.592978 269.683681 
L 680.592978 269.683681 
L 702.638708 269.683681 
L 702.638708 269.683681 
L 724.684438 269.683681 
L 724.684438 269.683681 
L 746.730168 269.683681 
L 746.730168 269.683681 
L 768.775898 269.683681 
L 768.775898 44.805903 
L 790.821628 44.805903 
L 790.821628 44.805903 
L 812.867358 44.805903 
L 812.867358 269.683681 
" clip-path="url(#pd52d2db359)" style="fill: none; stroke: #2ca02c; stroke-opacity: 0.8; stroke-width: 1.5; stroke-linecap: square"/>
   </g>
   <g id="line2d_17">
    <path d="M 85.358267 269.683681 
L 107.403997 269.683681 
L 107.403997 269.683681 
L 129.449727 269.683681 
L 129.449727 269.683681 
L 151.495457 269.683681 
L 151.495457 269.683681 
L 173.541187 269.683681 
L 173.541187 269.683681 
L 195.586917 269.683681 
L 195.586917 269.683681 
L 217.632647 269.683681 
L 217.632647 269.683681 
L 239.678377 269.683681 
L 239.678377 269.683681 
L 261.724107 269.683681 
L 261.724107 269.683681 
L 283.769837 269.683681 
L 283.769837 269.683681 
L 305.815567 269.683681 
L 305.815567 269.683681 
L 327.861297 269.683681 
L 327.861297 269.683681 
L 349.907027 269.683681 
L 349.907027 269.683681 
L 371.952757 269.683681 
L 371.952757 269.683681 
L 393.998487 269.683681 
L 393.998487 269.683681 
L 416.044217 269.683681 
L 416.044217 269.683681 
L 438.089947 269.683681 
L 438.089947 269.683681 
L 460.135678 269.683681 
L 460.135678 269.683681 
L 482.181408 269.683681 
L 482.181408 44.805903 
L 504.227138 44.805903 
L 504.227138 44.805903 
L 526.272868 44.805903 
L 526.272868 44.805903 
L 548.318598 44.805903 
L 548.318598 44.805903 
L 570.364328 44.805903 
L 570.364328 44.805903 
L 592.410058 44.805903 
L 592.410058 44.805903 
L 614.455788 44.805903 
L 614.455788 44.805903 
L 636.501518 44.805903 
L 636.501518 44.805903 
L 658.547248 44.805903 
L 658.547248 44.805903 
L 680.592978 44.805903 
L 680.592978 44.805903 
L 702.638708 44.805903 
L 702.638708 44.805903 
L 724.684438 44.805903 
L 724.684438 44.805903 
L 746.730168 44.805903 
L 746.730168 44.805903 
L 768.775898 44.805903 
L 768.775898 44.805903 
L 790.821628 44.805903 
L 790.821628 44.805903 
L 812.867358 44.805903 
L 812.867358 44.805903 
" clip-path="url(#pd52d2db359)" style="fill: none; stroke: #d62728; stroke-width: 2; stroke-linecap: square"/>
   </g>
   <g id="line2d_18">
    <path d="M 482.181408 292.171458 
L 482.181408 22.318125 
" clip-path="url(#pd52d2db359)" style="fill: none; stroke-dasharray: 1.5,2.475; stroke-dashoffset: 0; stroke: #1f77b4; stroke-width: 1.5"/>
   </g>
   <g id="line2d_19">
    <path d="M 526.272868 292.171458 
L 526.272868 22.318125 
" clip-path="url(#pd52d2db359)" style="fill: none; stroke-dasharray: 1.5,2.475; stroke-dashoffset: 0; stroke: #ffa500; stroke-width: 1.5"/>
   </g>
   <g id="line2d_20">
    <path d="M 48.982813 269.683681 
L 849.242813 269.683681 
" clip-path="url(#pd52d2db359)" style="fill: none; stroke: #1f77b4; stroke-width: 0.8; stroke-linecap: square"/>
   </g>
   <g id="patch_3">
    <path d="M 48.982813 292.171458 
L 48.982813 22.318125 
" style="fill: none; stroke: #000000; stroke-width: 0.8; stroke-linejoin: miter; stroke-linecap: square"/>
   </g>
   <g id="patch_4">
    <path d="M 849.242813 292.171458 
L 849.242813 22.318125 
" style="fill: none; stroke: #000000; stroke-width: 0.8; stroke-linejoin: miter; stroke-linecap: square"/>
   </g>
   <g id="patch_5">
    <path d="M 48.982813 292.171458 
L 849.242813 292.171458 
" style="fill: none; stroke: #000000; stroke-width: 0.8; stroke-linejoin: miter; stroke-linecap: square"/>
   </g>
   <g id="patch_6">
    <path d="M 48.982813 22.318125 
L 849.242813 22.318125 
" style="fill: none; stroke: #000000; stroke-width: 0.8; stroke-linejoin: miter; stroke-linecap: square"/>
   </g>
   <g id="text_8">
    <!-- Override mismatch: logged propensities can disagree with the action actually applied -->
    <g transform="translate(191.8 16.318125) scale(0.12 -0.12)">
     <defs>
      <path id="DejaVuSans-4f" d="M 2522 4238 
Q 1834 4238 1429 3725 
Q 1025 3213 1025 2328 
Q 1025 1447 1429 934 
Q 1834 422 2522 422 
Q 3209 422 3611 934 
Q 4013 1447 4013 2328 
Q 4013 3213 3611 3725 
Q 3209 4238 2522 4238 
z
M 2522 4750 
Q 3503 4750 4090 4092 
Q 4678 3434 4678 2328 
Q 4678 1225 4090 567 
Q 3503 -91 2522 -91 
Q 1538 -91 948 565 
Q 359 1222 359 2328 
Q 359 3434 948 4092 
Q 1538 4750 2522 4750 
z
" transform="scale(0.015625)"/>
      <path id="DejaVuSans-76" d="M 191 3500 
L 800 3500 
L 1894 563 
L 2988 3500 
L 3597 3500 
L 2284 0 
L 1503 0 
L 191 3500 
z
" transform="scale(0.015625)"/>
      <path id="DejaVuSans-65" d="M 3597 1894 
L 3597 1613 
L 953 1613 
Q 991 1019 1311 708 
Q 1631 397 2203 397 
Q 2534 397 2845 478 
Q 3156 559 3463 722 
L 3463 178 
Q 3153 47 2828 -22 
Q 2503 -91 2169 -91 
Q 1331 -91 842 396 
Q 353 884 353 1716 
Q 353 2575 817 3079 
Q 1281 3584 2069 3584 
Q 2775 3584 3186 3129 
Q 3597 2675 3597 1894 
z
M 3022 2063 
Q 3016 2534 2758 2815 
Q 2500 3097 2075 3097 
Q 1594 3097 1305 2825 
Q 1016 2553 972 2059 
L 3022 2063 
z
" transform="scale(0.015625)"/>
      <path id="DejaVuSans-64" d="M 2906 2969 
L 2906 4863 
L 3481 4863 
L 3481 0 
L 2906 0 
L 2906 525 
Q 2725 213 2448 61 
Q 2172 -91 1784 -91 
Q 1150 -91 751 415 
Q 353 922 353 1747 
Q 353 2572 751 3078 
Q 1150 3584 1784 3584 
Q 2172 3584 2448 3432 
Q 2725 3281 2906 2969 
z
M 947 1747 
Q 947 1113 1208 752 
Q 1469 391 1925 391 
Q 2381 391 2643 752 
Q 2906 1113 2906 1747 
Q 2906 2381 2643 2742 
Q 2381 3103 1925 3103 
Q 1469 3103 1208 2742 
Q 947 2381 947 1747 
z
" transform="scale(0.015625)"/>
      <path id="DejaVuSans-6d" d="M 3328 2828 
Q 3544 3216 3844 3400 
Q 4144 3584 4550 3584 
Q 5097 3584 5394 3201 
Q 5691 2819 5691 2113 
L 5691 0 
L 5113 0 
L 5113 2094 
Q 5113 2597 4934 2840 
Q 4756 3084 4391 3084 
Q 3944 3084 3684 2787 
Q 3425 2491 3425 1978 
L 3425 0 
L 2847 0 
L 2847 2094 
Q 2847 2600 2669 2842 
Q 2491 3084 2119 3084 
Q 1678 3084 1418 2786 
Q 1159 2488 1159 1978 
L 1159 0 
L 581 0 
L 581 3500 
L 1159 3500 
L 1159 2956 
Q 1356 3278 1631 3431 
Q 1906 3584 2284 3584 
Q 2666 3584 2933 3390 
Q 3200 3197 3328 2828 
z
" transform="scale(0.015625)"/>
      <path id="DejaVuSans-73" d="M 2834 3397 
L 2834 2853 
Q 2591 2978 2328 3040 
Q 2066 3103 1784 3103 
Q 1356 3103 1142 2972 
Q 928 2841 928 2578 
Q 928 2378 1081 2264 
Q 1234 2150 1697 2047 
L 1894 2003 
Q 2506 1872 2764 1633 
Q 3022 1394 3022 966 
Q 3022 478 2636 193 
Q 2250 -91 1575 -91 
Q 1294 -91 989 -36 
Q 684 19 347 128 
L 347 722 
Q 666 556 975 473 
Q 1284 391 1588 391 
Q 1994 391 2212 530 
Q 2431 669 2431 922 
Q 2431 1156 2273 1281 
Q 2116 1406 1581 1522 
L 1381 1569 
Q 847 1681 609 1914 
Q 372 2147 372 2553 
Q 372 3047 722 3315 
Q 1072 3584 1716 3584 
Q 2034 3584 2315 3537 
Q 2597 3491 2834 3397 
z
" transform="scale(0.015625)"/>
      <path id="DejaVuSans-68" d="M 3513 2113 
L 3513 0 
L 2938 0 
L 2938 2094 
Q 2938 2591 2744 2837 
Q 2550 3084 2163 3084 
Q 1697 3084 1428 2787 
Q 1159 2491 1159 1978 
L 1159 0 
L 581 0 
L 581 4863 
L 1159 4863 
L 1159 2956 
Q 1366 3272 1645 3428 
Q 1925 3584 2291 3584 
Q 2894 3584 3203 3211 
Q 3513 2838 3513 2113 
z
" transform="scale(0.015625)"/>
      <path id="DejaVuSans-3a" d="M 750 794 
L 1409 794 
L 1409 0 
L 750 0 
L 750 794 
z
M 750 3309 
L 1409 3309 
L 1409 2516 
L 750 2516 
L 750 3309 
z
" transform="scale(0.015625)"/>
      <path id="DejaVuSans-6c" d="M 603 4863 
L 1178 4863 
L 1178 0 
L 603 0 
L 603 4863 
z
" transform="scale(0.015625)"/>
      <path id="DejaVuSans-67" d="M 2906 1791 
Q 2906 2416 2648 2759 
Q 2391 3103 1925 3103 
Q 1463 3103 1205 2759 
Q 947 2416 947 1791 
Q 947 1169 1205 825 
Q 1463 481 1925 481 
Q 2391 481 2648 825 
Q 2906 1169 2906 1791 
z
M 3481 434 
Q 3481 -459 3084 -895 
Q 2688 -1331 1869 -1331 
Q 1566 -1331 1297 -1286 
Q 1028 -1241 775 -1147 
L 775 -588 
Q 1028 -725 1275 -790 
Q 1522 -856 1778 -856 
Q 2344 -856 2625 -561 
Q 2906 -266 2906 331 
L 2906 616 
Q 2728 306 2450 153 
Q 2172 0 1784 0 
Q 1141 0 747 490 
Q 353 981 353 1791 
Q 353 2603 747 3093 
Q 1141 3584 1784 3584 
Q 2172 3584 2450 3431 
Q 2728 3278 2906 2969 
L 2906 3500 
L 3481 3500 
L 3481 434 
z
" transform="scale(0.015625)"/>
      <path id="DejaVuSans-77" d="M 269 3500 
L 844 3500 
L 1563 769 
L 2278 3500 
L 2956 3500 
L 3675 769 
L 4391 3500 
L 4966 3500 
L 4050 0 
L 3372 0 
L 2619 2869 
L 1863 0 
L 1184 0 
L 269 3500 
z
" transform="scale(0.015625)"/>
      <path id="DejaVuSans-75" d="M 544 1381 
L 544 3500 
L 1119 3500 
L 1119 1403 
Q 1119 906 1312 657 
Q 1506 409 1894 409 
Q 2359 409 2629 706 
Q 2900 1003 2900 1516 
L 2900 3500 
L 3475 3500 
L 3475 0 
L 2900 0 
L 2900 538 
Q 2691 219 2414 64 
Q 2138 -91 1772 -91 
Q 1169 -91 856 284 
Q 544 659 544 1381 
z
M 1991 3584 
L 1991 3584 
z
" transform="scale(0.015625)"/>
      <path id="DejaVuSans-79" d="M 2059 -325 
Q 1816 -950 1584 -1140 
Q 1353 -1331 966 -1331 
L 506 -1331 
L 506 -850 
L 844 -850 
Q 1081 -850 1212 -737 
Q 1344 -625 1503 -206 
L 1606 56 
L 191 3500 
L 800 3500 
L 1894 763 
L 2988 3500 
L 3597 3500 
L 2059 -325 
z
" transform="scale(0.015625)"/>
     </defs>
     <use xlink:href="#DejaVuSans-4f"/>
     <use xlink:href="#DejaVuSans-76" x="78.710938"/>
     <use xlink:href="#DejaVuSans-65" x="137.890625"/>
     <use xlink:href="#DejaVuSans-72" x="199.414062"/>
     <use xlink:href="#DejaVuSans-72" x="238.777344"/>
     <use xlink:href="#DejaVuSans-69" x="279.890625"/>
     <use xlink:href="#DejaVuSans-64" x="307.673828"/>
     <use xlink:href="#DejaVuSans-65" x="371.150391"/>
     <use xlink:href="#DejaVuSans-20" x="432.673828"/>
     <use xlink:href="#DejaVuSans-6d" x="464.460938"/>
     <use xlink:href="#DejaVuSans-69" x="561.873047"/>
     <use xlink:href="#DejaVuSans-73" x="589.65625"/>
     <use xlink:href="#DejaVuSans-6d" x="641.755859"/>
     <use xlink:href="#DejaVuSans-61" x="739.167969"/>
     <use xlink:href="#DejaVuSans-74" x="800.447266"/>
     <use xlink:href="#DejaVuSans-63" x="839.65625"/>
     <use xlink:href="#DejaVuSans-68" x="894.636719"/>
     <use xlink:href="#DejaVuSans-3a" x="958.015625"/>
     <use xlink:href="#DejaVuSans-20" x="991.707031"/>
     <use xlink:href="#DejaVuSans-6c" x="1023.494141"/>
     <use xlink:href="#DejaVuSans-6f" x="1051.277344"/>
     <use xlink:href="#DejaVuSans-67" x="1112.458984"/>
     <use xlink:href="#DejaVuSans-67" x="1175.935547"/>
     <use xlink:href="#DejaVuSans-65" x="1239.412109"/>
     <use xlink:href="#DejaVuSans-64" x="1300.935547"/>
     <use xlink:href="#DejaVuSans-20" x="1364.412109"/>
     <use xlink:href="#DejaVuSans-70" x="1396.199219"/>
     <use xlink:href="#DejaVuSans-72" x="1459.675781"/>
     <use xlink:href="#DejaVuSans-6f" x="1498.539062"/>
     <use xlink:href="#DejaVuSans-70" x="1559.720703"/>
     <use xlink:href="#DejaVuSans-65" x="1623.197266"/>
     <use xlink:href="#DejaVuSans-6e" x="1684.720703"/>
     <use xlink:href="#DejaVuSans-73" x="1748.099609"/>
     <use xlink:href="#DejaVuSans-69" x="1800.199219"/>
     <use xlink:href="#DejaVuSans-74" x="1827.982422"/>
     <use xlink:href="#DejaVuSans-69" x="1867.191406"/>
     <use xlink:href="#DejaVuSans-65" x="1894.974609"/>
     <use xlink:href="#DejaVuSans-73" x="1956.498047"/>
     <use xlink:href="#DejaVuSans-20" x="2008.597656"/>
     <use xlink:href="#DejaVuSans-63" x="2040.384766"/>
     <use xlink:href="#DejaVuSans-61" x="2095.365234"/>
     <use xlink:href="#DejaVuSans-6e" x="2156.644531"/>
     <use xlink:href="#DejaVuSans-20" x="2220.023438"/>
     <use xlink:href="#DejaVuSans-64" x="2251.810547"/>
     <use xlink:href="#DejaVuSans-69" x="2315.287109"/>
     <use xlink:href="#DejaVuSans-73" x="2343.070312"/>
     <use xlink:href="#DejaVuSans-61" x="2395.169922"/>
     <use xlink:href="#DejaVuSans-67" x="2456.449219"/>
     <use xlink:href="#DejaVuSans-72" x="2519.925781"/>
     <use xlink:href="#DejaVuSans-65" x="2558.789062"/>
     <use xlink:href="#DejaVuSans-65" x="2620.3125"/>
     <use xlink:href="#DejaVuSans-20" x="2681.835938"/>
     <use xlink:href="#DejaVuSans-77" x="2713.623047"/>
     <use xlink:href="#DejaVuSans-69" x="2795.410156"/>
     <use xlink:href="#DejaVuSans-74" x="2823.193359"/>
     <use xlink:href="#DejaVuSans-68" x="2862.402344"/>
     <use xlink:href="#DejaVuSans-20" x="2925.78125"/>
     <use xlink:href="#DejaVuSans-74" x="2957.568359"/>
     <use xlink:href="#DejaVuSans-68" x="2996.777344"/>
     <use xlink:href="#DejaVuSans-65" x="3060.15625"/>
     <use xlink:href="#DejaVuSans-20" x="3121.679688"/>
     <use xlink:href="#DejaVuSans-61" x="3153.466797"/>
     <use xlink:href="#DejaVuSans-63" x="3214.746094"/>
     <use xlink:href="#DejaVuSans-74" x="3269.726562"/>
     <use xlink:href="#DejaVuSans-69" x="3308.935547"/>
     <use xlink:href="#DejaVuSans-6f" x="3336.71875"/>
     <use xlink:href="#DejaVuSans-6e" x="3397.900391"/>
     <use xlink:href="#DejaVuSans-20" x="3461.279297"/>
     <use xlink:href="#DejaVuSans-61" x="3493.066406"/>
     <use xlink:href="#DejaVuSans-63" x="3554.345703"/>
     <use xlink:href="#DejaVuSans-74" x="3609.326172"/>
     <use xlink:href="#DejaVuSans-75" x="3648.535156"/>
     <use xlink:href="#DejaVuSans-61" x="3711.914062"/>
     <use xlink:href="#DejaVuSans-6c" x="3773.193359"/>
     <use xlink:href="#DejaVuSans-6c" x="3800.976562"/>
     <use xlink:href="#DejaVuSans-79" x="3828.759766"/>
     <use xlink:href="#DejaVuSans-20" x="3887.939453"/>
     <use xlink:href="#DejaVuSans-61" x="3919.726562"/>
     <use xlink:href="#DejaVuSans-70" x="3981.005859"/>
     <use xlink:href="#DejaVuSans-70" x="4044.482422"/>
     <use xlink:href="#DejaVuSans-6c" x="4107.958984"/>
     <use xlink:href="#DejaVuSans-69" x="4135.742188"/>
     <use xlink:href="#DejaVuSans-65" x="4163.525391"/>
     <use xlink:href="#DejaVuSans-64" x="4225.048828"/>
    </g>
   </g>
   <g id="legend_1">
    <g id="patch_7">
     <path d="M 55.982813 75.19625 
L 525.432813 75.19625 
Q 527.432813 75.19625 527.432813 73.19625 
L 527.432813 29.318125 
Q 527.432813 27.318125 525.432813 27.318125 
L 55.982813 27.318125 
Q 53.982813 27.318125 53.982813 29.318125 
L 53.982813 73.19625 
Q 53.982813 75.19625 55.982813 75.19625 
z
" style="fill: #ffffff; opacity: 0.8; stroke: #cccccc; stroke-linejoin: miter"/>
    </g>
    <g id="line2d_21">
     <path d="M 57.982813 35.518125 
L 67.982813 35.518125 
L 77.982813 35.518125 
" style="fill: none; stroke: #1f77b4; stroke-width: 1.5; stroke-linecap: square"/>
    </g>
    <g id="text_9">
     <!-- logged $\pi_b(1|s_t)$ -->
     <g transform="translate(85.982813 39.018125) scale(0.1 -0.1)">
      <defs>
       <path id="DejaVuSans-Oblique-3c0" d="M 584 3500 
L 3938 3500 
L 3825 2925 
L 3384 2925 
L 2966 775 
Q 2922 550 2981 450 
Q 3038 353 3209 353 
Q 3256 353 3325 363 
Q 3397 369 3419 372 
L 3338 -44 
Q 3222 -84 3103 -103 
Q 2981 -122 2866 -122 
Q 2491 -122 2388 81 
Q 2284 288 2391 838 
L 2797 2925 
L 1506 2925 
L 938 0 
L 350 0 
L 919 2925 
L 472 2925 
L 584 3500 
z
" transform="scale(0.015625)"/>
       <path id="DejaVuSans-Oblique-62" d="M 3169 2138 
Q 3169 2591 2961 2847 
Q 2753 3103 2388 3103 
Q 2122 3103 1889 2973 
Q 1656 2844 1484 2597 
Q 1303 2338 1198 1995 
Q 1094 1653 1094 1313 
Q 1094 881 1298 636 
Q 1503 391 1863 391 
Q 2134 391 2365 517 
Q 2597 644 2772 891 
Q 2950 1147 3059 1487 
Q 3169 1828 3169 2138 
z
M 1381 2969 
Q 1594 3256 1914 3420 
Q 2234 3584 2584 3584 
Q 3122 3584 3439 3221 
Q 3756 2859 3756 2241 
Q 3756 1734 3570 1259 
Q 3384 784 3041 416 
Q 2816 172 2522 40 
Q 2228 -91 1906 -91 
Q 1566 -91 1316 65 
Q 1066 222 909 531 
L 806 0 
L 231 0 
L 1178 4863 
L 1753 4863 
L 1381 2969 
z
" transform="scale(0.015625)"/>
       <path id="DejaVuSans-28" d="M 1984 4856 
Q 1566 4138 1362 3434 
Q 1159 2731 1159 2009 
Q 1159 1288 1364 580 
Q 1569 -128 1984 -844 
L 1484 -844 
Q 1016 -109 783 600 
Q 550 1309 550 2009 
Q 550 2706 781 3412 
Q 1013 4119 1484 4856 
L 1984 4856 
z
" transform="scale(0.015625)"/>
       <path id="DejaVuSans-7c" d="M 1344 4891 
L 1344 -1509 
L 813 -1509 
L 813 4891 
L 1344 4891 
z
" transform="scale(0.015625)"/>
       <path id="DejaVuSans-Oblique-73" d="M 3200 3397 
L 3091 2853 
Q 2863 2978 2609 3040 
Q 2356 3103 2088 3103 
Q 1634 3103 1373 2948 
Q 1113 2794 1113 2528 
Q 1113 2219 1719 2053 
Q 1766 2041 1788 2034 
L 1972 1978 
Q 2547 1819 2739 1644 
Q 2931 1469 2931 1166 
Q 2931 609 2489 259 
Q 2047 -91 1331 -91 
Q 1053 -91 747 -37 
Q 441 16 72 128 
L 184 722 
Q 500 559 806 475 
Q 1113 391 1394 391 
Q 1816 391 2080 572 
Q 2344 753 2344 1031 
Q 2344 1331 1650 1516 
L 1591 1531 
L 1394 1581 
Q 956 1697 753 1886 
Q 550 2075 550 2369 
Q 550 2928 970 3256 
Q 1391 3584 2113 3584 
Q 2397 3584 2667 3537 
Q 2938 3491 3200 3397 
z
" transform="scale(0.015625)"/>
       <path id="DejaVuSans-Oblique-74" d="M 2706 3500 
L 2619 3053 
L 1472 3053 
L 1100 1153 
Q 1081 1047 1072 975 
Q 1063 903 1063 863 
Q 1063 663 1183 572 
Q 1303 481 1569 481 
L 2150 481 
L 2053 0 
L 1503 0 
Q 991 0 739 200 
Q 488 400 488 806 
Q 488 878 497 964 
Q 506 1050 525 1153 
L 897 3053 
L 409 3053 
L 500 3500 
L 978 3500 
L 1172 4494 
L 1747 4494 
L 1556 3500 
L 2706 3500 
z
" transform="scale(0.015625)"/>
       <path id="DejaVuSans-29" d="M 513 4856 
L 1013 4856 
Q 1481 4119 1714 3412 
Q 1947 2706 1947 2009 
Q 1947 1309 1714 600 
Q 1481 -109 1013 -844 
L 513 -844 
Q 928 -128 1133 580 
Q 1338 1288 1338 2009 
Q 1338 2731 1133 3434 
Q 928 4138 513 4856 
z
" transform="scale(0.015625)"/>
      </defs>
      <use xlink:href="#DejaVuSans-6c" transform="translate(0 0.578125)"/>
      <use xlink:href="#DejaVuSans-6f" transform="translate(27.783203 0.578125)"/>
      <use xlink:href="#DejaVuSans-67" transform="translate(88.964844 0.578125)"/>
      <use xlink:href="#DejaVuSans-67" transform="translate(152.441406 0.578125)"/>
      <use xlink:href="#DejaVuSans-65" transform="translate(215.917969 0.578125)"/>
      <use xlink:href="#DejaVuSans-64" transform="translate(277.441406 0.578125)"/>
      <use xlink:href="#DejaVuSans-20" transform="translate(340.917969 0.578125)"/>
      <use xlink:href="#DejaVuSans-Oblique-3c0" transform="translate(372.705078 0.578125)"/>
      <use xlink:href="#DejaVuSans-Oblique-62" transform="translate(432.910156 -15.828125) scale(0.7)"/>
      <use xlink:href="#DejaVuSans-28" transform="translate(480.078125 0.578125)"/>
      <use xlink:href="#DejaVuSans-31" transform="translate(519.091797 0.578125)"/>
      <use xlink:href="#DejaVuSans-7c" transform="translate(582.714844 0.578125)"/>
      <use xlink:href="#DejaVuSans-Oblique-73" transform="translate(616.40625 0.578125)"/>
      <use xlink:href="#DejaVuSans-Oblique-74" transform="translate(668.505859 -15.828125) scale(0.7)"/>
      <use xlink:href="#DejaVuSans-29" transform="translate(698.686523 0.578125)"/>
     </g>
    </g>
    <g id="line2d_22">
     <path d="M 57.982813 50.618125 
L 67.982813 50.618125 
L 77.982813 50.618125 
" style="fill: none; stroke-dasharray: 5.55,2.4; stroke-dashoffset: 0; stroke: #ff7f0e; stroke-width: 1.5"/>
    </g>
    <g id="text_10">
     <!-- target $\pi_e(1|s_t)$ -->
     <g transform="translate(85.982813 54.118125) scale(0.1 -0.1)">
      <defs>
       <path id="DejaVuSans-Oblique-65" d="M 3078 2063 
Q 3088 2113 3092 2166 
Q 3097 2219 3097 2272 
Q 3097 2653 2873 2875 
Q 2650 3097 2266 3097 
Q 1838 3097 1509 2826 
Q 1181 2556 1013 2059 
L 3078 2063 
z
M 3578 1613 
L 903 1613 
Q 884 1494 878 1425 
Q 872 1356 872 1306 
Q 872 872 1139 634 
Q 1406 397 1894 397 
Q 2269 397 2603 481 
Q 2938 566 3225 728 
L 3116 159 
Q 2806 34 2476 -28 
Q 2147 -91 1806 -91 
Q 1078 -91 686 257 
Q 294 606 294 1247 
Q 294 1794 489 2264 
Q 684 2734 1063 3103 
Q 1306 3334 1642 3459 
Q 1978 3584 2356 3584 
Q 2950 3584 3301 3228 
Q 3653 2872 3653 2272 
Q 3653 2128 3634 1964 
Q 3616 1800 3578 1613 
z
" transform="scale(0.015625)"/>
      </defs>
      <use xlink:href="#DejaVuSans-74" transform="translate(0 0.578125)"/>
      <use xlink:href="#DejaVuSans-61" transform="translate(39.208984 0.578125)"/>
      <use xlink:href="#DejaVuSans-72" transform="translate(100.488281 0.578125)"/>
      <use xlink:href="#DejaVuSans-67" transform="translate(141.601562 0.578125)"/>
      <use xlink:href="#DejaVuSans-65" transform="translate(205.078125 0.578125)"/>
      <use xlink:href="#DejaVuSans-74" transform="translate(266.601562 0.578125)"/>
      <use xlink:href="#DejaVuSans-20" transform="translate(305.810547 0.578125)"/>
      <use xlink:href="#DejaVuSans-Oblique-3c0" transform="translate(337.597656 0.578125)"/>
      <use xlink:href="#DejaVuSans-Oblique-65" transform="translate(397.802734 -15.828125) scale(0.7)"/>
      <use xlink:href="#DejaVuSans-28" transform="translate(443.603516 0.578125)"/>
      <use xlink:href="#DejaVuSans-31" transform="translate(482.617188 0.578125)"/>
      <use xlink:href="#DejaVuSans-7c" transform="translate(546.240234 0.578125)"/>
      <use xlink:href="#DejaVuSans-Oblique-73" transform="translate(579.931641 0.578125)"/>
      <use xlink:href="#DejaVuSans-Oblique-74" transform="translate(632.03125 -15.828125) scale(0.7)"/>
      <use xlink:href="#DejaVuSans-29" transform="translate(662.211914 0.578125)"/>
     </g>
    </g>
    <g id="line2d_23">
     <path d="M 57.982813 65.616562 
L 67.982813 65.616562 
L 67.982813 65.616562 
L 77.982813 65.616562 
L 77.982813 65.616562 
" style="fill: none; stroke: #2ca02c; stroke-opacity: 0.8; stroke-width: 1.5; stroke-linecap: square"/>
    </g>
    <g id="text_11">
     <!-- policy decided action (before overrides) -->
     <g transform="translate(85.982813 69.116562) scale(0.1 -0.1)">
      <defs>
       <path id="DejaVuSans-66" d="M 2375 4863 
L 2375 4384 
L 1825 4384 
Q 1516 4384 1395 4259 
Q 1275 4134 1275 3809 
L 1275 3500 
L 2222 3500 
L 2222 3053 
L 1275 3053 
L 1275 0 
L 697 0 
L 697 3053 
L 147 3053 
L 147 3500 
L 697 3500 
L 697 3744 
Q 697 4328 969 4595 
Q 1241 4863 1831 4863 
L 2375 4863 
z
" transform="scale(0.015625)"/>
      </defs>
      <use xlink:href="#DejaVuSans-70"/>
      <use xlink:href="#DejaVuSans-6f" x="63.476562"/>
      <use xlink:href="#DejaVuSans-6c" x="124.658203"/>
      <use xlink:href="#DejaVuSans-69" x="152.441406"/>
      <use xlink:href="#DejaVuSans-63" x="180.224609"/>
      <use xlink:href="#DejaVuSans-79" x="235.205078"/>
      <use xlink:href="#DejaVuSans-20" x="294.384766"/>
      <use xlink:href="#DejaVuSans-64" x="326.171875"/>
      <use xlink:href="#DejaVuSans-65" x="389.648438"/>
      <use xlink:href="#DejaVuSans-63" x="451.171875"/>
      <use xlink:href="#DejaVuSans-69" x="506.152344"/>
      <use xlink:href="#DejaVuSans-64" x="533.935547"/>
      <use xlink:href="#DejaVuSans-65" x="597.412109"/>
      <use xlink:href="#DejaVuSans-64" x="658.935547"/>
      <use xlink:href="#DejaVuSans-20" x="722.412109"/>
      <use xlink:href="#DejaVuSans-61" x="754.199219"/>
      <use xlink:href="#DejaVuSans-63" x="815.478516"/>
      <use xlink:href="#DejaVuSans-74" x="870.458984"/>
      <use xlink:href="#DejaVuSans-69" x="909.667969"/>
      <use xlink:href="#DejaVuSans-6f" x="937.451172"/>
      <use xlink:href="#DejaVuSans-6e" x="998.632812"/>
      <use xlink:href="#DejaVuSans-20" x="1062.011719"/>
      <use xlink:href="#DejaVuSans-28" x="1093.798828"/>
      <use xlink:href="#DejaVuSans-62" x="1132.8125"/>
      <use xlink:href="#DejaVuSans-65" x="1196.289062"/>
      <use xlink:href="#DejaVuSans-66" x="1257.8125"/>
      <use xlink:href="#DejaVuSans-6f" x="1293.017578"/>
      <use xlink:href="#DejaVuSans-72" x="1354.199219"/>
      <use xlink:href="#DejaVuSans-65" x="1393.0625"/>
      <use xlink:href="#DejaVuSans-20" x="1454.585938"/>
      <use xlink:href="#DejaVuSans-6f" x="1486.373047"/>
      <use xlink:href="#DejaVuSans-76" x="1547.554688"/>
      <use xlink:href="#DejaVuSans-65" x="1606.734375"/>
      <use xlink:href="#DejaVuSans-72" x="1668.257812"/>
      <use xlink:href="#DejaVuSans-72" x="1707.621094"/>
      <use xlink:href="#DejaVuSans-69" x="1748.734375"/>
      <use xlink:href="#DejaVuSans-64" x="1776.517578"/>
      <use xlink:href="#DejaVuSans-65" x="1839.994141"/>
      <use xlink:href="#DejaVuSans-73" x="1901.517578"/>
      <use xlink:href="#DejaVuSans-29" x="1953.617188"/>
     </g>
    </g>
    <g id="line2d_24">
     <path d="M 305.254688 35.518125 
L 315.254688 35.518125 
L 315.254688 35.518125 
L 325.254688 35.518125 
L 325.254688 35.518125 
" style="fill: none; stroke: #d62728; stroke-width: 2; stroke-linecap: square"/>
    </g>
    <g id="text_12">
     <!-- applied action (after stickiness) -->
     <g transform="translate(333.254688 39.018125) scale(0.1 -0.1)">
      <defs>
       <path id="DejaVuSans-6b" d="M 581 4863 
L 1159 4863 
L 1159 1991 
L 2875 3500 
L 3609 3500 
L 1753 1863 
L 3688 0 
L 2938 0 
L 1159 1709 
L 1159 0 
L 581 0 
L 581 4863 
z
" transform="scale(0.015625)"/>
      </defs>
      <use xlink:href="#DejaVuSans-61"/>
      <use xlink:href="#DejaVuSans-70" x="61.279297"/>
      <use xlink:href="#DejaVuSans-70" x="124.755859"/>
      <use xlink:href="#DejaVuSans-6c" x="188.232422"/>
      <use xlink:href="#DejaVuSans-69" x="216.015625"/>
      <use xlink:href="#DejaVuSans-65" x="243.798828"/>
      <use xlink:href="#DejaVuSans-64" x="305.322266"/>
      <use xlink:href="#DejaVuSans-20" x="368.798828"/>
      <use xlink:href="#DejaVuSans-61" x="400.585938"/>
      <use xlink:href="#DejaVuSans-63" x="461.865234"/>
      <use xlink:href="#DejaVuSans-74" x="516.845703"/>
      <use xlink:href="#DejaVuSans-69" x="556.054688"/>
      <use xlink:href="#DejaVuSans-6f" x="583.837891"/>
      <use xlink:href="#DejaVuSans-6e" x="645.019531"/>
      <use xlink:href="#DejaVuSans-20" x="708.398438"/>
      <use xlink:href="#DejaVuSans-28" x="740.185547"/>
      <use xlink:href="#DejaVuSans-61" x="779.199219"/>
      <use xlink:href="#DejaVuSans-66" x="840.478516"/>
      <use xlink:href="#DejaVuSans-74" x="873.933594"/>
      <use xlink:href="#DejaVuSans-65" x="913.142578"/>
      <use xlink:href="#DejaVuSans-72" x="974.666016"/>
      <use xlink:href="#DejaVuSans-20" x="1015.779297"/>
      <use xlink:href="#DejaVuSans-73" x="1047.566406"/>
      <use xlink:href="#DejaVuSans-74" x="1099.666016"/>
      <use xlink:href="#DejaVuSans-69" x="1138.875"/>
      <use xlink:href="#DejaVuSans-63" x="1166.658203"/>
      <use xlink:href="#DejaVuSans-6b" x="1221.638672"/>
      <use xlink:href="#DejaVuSans-69" x="1279.548828"/>
      <use xlink:href="#DejaVuSans-6e" x="1307.332031"/>
      <use xlink:href="#DejaVuSans-65" x="1370.710938"/>
      <use xlink:href="#DejaVuSans-73" x="1432.234375"/>
      <use xlink:href="#DejaVuSans-73" x="1484.333984"/>
      <use xlink:href="#DejaVuSans-29" x="1536.433594"/>
     </g>
    </g>
    <g id="line2d_25">
     <path d="M 305.254688 50.19625 
L 315.254688 50.19625 
L 325.254688 50.19625 
" style="fill: none; stroke-dasharray: 1.5,2.475; stroke-dashoffset: 0; stroke: #1f77b4; stroke-width: 1.5"/>
    </g>
    <g id="text_13">
     <!-- first switch time -->
     <g transform="translate(333.254688 53.69625) scale(0.1 -0.1)">
      <use xlink:href="#DejaVuSans-66"/>
      <use xlink:href="#DejaVuSans-69" x="35.205078"/>
      <use xlink:href="#DejaVuSans-72" x="62.988281"/>
      <use xlink:href="#DejaVuSans-73" x="104.101562"/>
      <use xlink:href="#DejaVuSans-74" x="156.201172"/>
      <use xlink:href="#DejaVuSans-20" x="195.410156"/>
      <use xlink:href="#DejaVuSans-73" x="227.197266"/>
      <use xlink:href="#DejaVuSans-77" x="279.296875"/>
      <use xlink:href="#DejaVuSans-69" x="361.083984"/>
      <use xlink:href="#DejaVuSans-74" x="388.867188"/>
      <use xlink:href="#DejaVuSans-63" x="428.076172"/>
      <use xlink:href="#DejaVuSans-68" x="483.056641"/>
      <use xlink:href="#DejaVuSans-20" x="546.435547"/>
      <use xlink:href="#DejaVuSans-74" x="578.222656"/>
      <use xlink:href="#DejaVuSans-69" x="617.431641"/>
      <use xlink:href="#DejaVuSans-6d" x="645.214844"/>
      <use xlink:href="#DejaVuSans-65" x="742.626953"/>
     </g>
    </g>
    <g id="line2d_26">
     <path d="M 305.254688 64.874375 
L 315.254688 64.874375 
L 325.254688 64.874375 
" style="fill: none; stroke-dasharray: 1.5,2.475; stroke-dashoffset: 0; stroke: #ffa500; stroke-width: 1.5"/>
    </g>
    <g id="text_14">
     <!-- occupied period start (comfort target) -->
     <g transform="translate(333.254688 68.374375) scale(0.1 -0.1)">
      <use xlink:href="#DejaVuSans-6f"/>
      <use xlink:href="#DejaVuSans-63" x="61.181641"/>
      <use xlink:href="#DejaVuSans-63" x="116.162109"/>
      <use xlink:href="#DejaVuSans-75" x="171.142578"/>
      <use xlink:href="#DejaVuSans-70" x="234.521484"/>
      <use xlink:href="#DejaVuSans-69" x="297.998047"/>
      <use xlink:href="#DejaVuSans-65" x="325.78125"/>
      <use xlink:href="#DejaVuSans-64" x="387.304688"/>
      <use xlink:href="#DejaVuSans-20" x="450.78125"/>
      <use xlink:href="#DejaVuSans-70" x="482.568359"/>
      <use xlink:href="#DejaVuSans-65" x="546.044922"/>
      <use xlink:href="#DejaVuSans-72" x="607.568359"/>
      <use xlink:href="#DejaVuSans-69" x="648.681641"/>
      <use xlink:href="#DejaVuSans-6f" x="676.464844"/>
      <use xlink:href="#DejaVuSans-64" x="737.646484"/>
      <use xlink:href="#DejaVuSans-20" x="801.123047"/>
      <use xlink:href="#DejaVuSans-73" x="832.910156"/>
      <use xlink:href="#DejaVuSans-74" x="885.009766"/>
      <use xlink:href="#DejaVuSans-61" x="924.21875"/>
      <use xlink:href="#DejaVuSans-72" x="985.498047"/>
      <use xlink:href="#DejaVuSans-74" x="1026.611328"/>
      <use xlink:href="#DejaVuSans-20" x="1065.820312"/>
      <use xlink:href="#DejaVuSans-28" x="1097.607422"/>
      <use xlink:href="#DejaVuSans-63" x="1136.621094"/>
      <use xlink:href="#DejaVuSans-6f" x="1191.601562"/>
      <use xlink:href="#DejaVuSans-6d" x="1252.783203"/>
      <use xlink:href="#DejaVuSans-66" x="1350.195312"/>
      <use xlink:href="#DejaVuSans-6f" x="1385.400391"/>
      <use xlink:href="#DejaVuSans-72" x="1446.582031"/>
      <use xlink:href="#DejaVuSans-74" x="1487.695312"/>
      <use xlink:href="#DejaVuSans-20" x="1526.904297"/>
      <use xlink:href="#DejaVuSans-74" x="1558.691406"/>
      <use xlink:href="#DejaVuSans-61" x="1597.900391"/>
      <use xlink:href="#DejaVuSans-72" x="1659.179688"/>
      <use xlink:href="#DejaVuSans-67" x="1698.542969"/>
      <use xlink:href="#DejaVuSans-65" x="1762.019531"/>
      <use xlink:href="#DejaVuSans-74" x="1823.542969"/>
      <use xlink:href="#DejaVuSans-29" x="1862.751953"/>
     </g>
    </g>
   </g>
  </g>
  <g id="axes_2">
   <g id="patch_8">
    <path d="M 48.982813 457.478125 
L 849.242813 457.478125 
L 849.242813 322.551458 
L 48.982813 322.551458 
z
" style="fill: #ffffff"/>
   </g>
   <g id="matplotlib.axis_3">
    <g id="xtick_8">
     <g id="line2d_27">
      <g>
       <use xlink:href="#maadaf6b012" x="85.358267" y="457.478125" style="stroke: #000000; stroke-width: 0.8"/>
      </g>
     </g>
     <g id="text_15">
      <!-- 0 -->
      <g transform="translate(82.177017 472.076563) scale(0.1 -0.1)">
       <use xlink:href="#DejaVuSans-30"/>
      </g>
     </g>
    </g>
    <g id="xtick_9">
     <g id="line2d_28">
      <g>
       <use xlink:href="#maadaf6b012" x="195.586917" y="457.478125" style="stroke: #000000; stroke-width: 0.8"/>
      </g>
     </g>
     <g id="text_16">
      <!-- 5 -->
      <g transform="translate(192.405667 472.076563) scale(0.1 -0.1)">
       <defs>
        <path id="DejaVuSans-35" d="M 691 4666 
L 3169 4666 
L 3169 4134 
L 1269 4134 
L 1269 2991 
Q 1406 3038 1543 3061 
Q 1681 3084 1819 3084 
Q 2600 3084 3056 2656 
Q 3513 2228 3513 1497 
Q 3513 744 3044 326 
Q 2575 -91 1722 -91 
Q 1428 -91 1123 -41 
Q 819 9 494 109 
L 494 744 
Q 775 591 1075 516 
Q 1375 441 1709 441 
Q 2250 441 2565 725 
Q 2881 1009 2881 1497 
Q 2881 1984 2565 2268 
Q 2250 2553 1709 2553 
Q 1456 2553 1204 2497 
Q 953 2441 691 2322 
L 691 4666 
z
" transform="scale(0.015625)"/>
       </defs>
       <use xlink:href="#DejaVuSans-35"/>
      </g>
     </g>
    </g>
    <g id="xtick_10">
     <g id="line2d_29">
      <g>
       <use xlink:href="#maadaf6b012" x="305.815567" y="457.478125" style="stroke: #000000; stroke-width: 0.8"/>
      </g>
     </g>
     <g id="text_17">
      <!-- 10 -->
      <g transform="translate(299.453067 472.076563) scale(0.1 -0.1)">
       <use xlink:href="#DejaVuSans-31"/>
       <use xlink:href="#DejaVuSans-30" x="63.623047"/>
      </g>
     </g>
    </g>
    <g id="xtick_11">
     <g id="line2d_30">
      <g>
       <use xlink:href="#maadaf6b012" x="416.044217" y="457.478125" style="stroke: #000000; stroke-width: 0.8"/>
      </g>
     </g>
     <g id="text_18">
      <!-- 15 -->
      <g transform="translate(409.681717 472.076563) scale(0.1 -0.1)">
       <use xlink:href="#DejaVuSans-31"/>
       <use xlink:href="#DejaVuSans-35" x="63.623047"/>
      </g>
     </g>
    </g>
    <g id="xtick_12">
     <g id="line2d_31">
      <g>
       <use xlink:href="#maadaf6b012" x="526.272868" y="457.478125" style="stroke: #000000; stroke-width: 0.8"/>
      </g>
     </g>
     <g id="text_19">
      <!-- 20 -->
      <g transform="translate(519.910368 472.076563) scale(0.1 -0.1)">
       <use xlink:href="#DejaVuSans-32"/>
       <use xlink:href="#DejaVuSans-30" x="63.623047"/>
      </g>
     </g>
    </g>
    <g id="xtick_13">
     <g id="line2d_32">
      <g>
       <use xlink:href="#maadaf6b012" x="636.501518" y="457.478125" style="stroke: #000000; stroke-width: 0.8"/>
      </g>
     </g>
     <g id="text_20">
      <!-- 25 -->
      <g transform="translate(630.139018 472.076563) scale(0.1 -0.1)">
       <use xlink:href="#DejaVuSans-32"/>
       <use xlink:href="#DejaVuSans-35" x="63.623047"/>
      </g>
     </g>
    </g>
    <g id="xtick_14">
     <g id="line2d_33">
      <g>
       <use xlink:href="#maadaf6b012" x="746.730168" y="457.478125" style="stroke: #000000; stroke-width: 0.8"/>
      </g>
     </g>
     <g id="text_21">
      <!-- 30 -->
      <g transform="translate(740.367668 472.076563) scale(0.1 -0.1)">
       <defs>
        <path id="DejaVuSans-33" d="M 2597 2516 
Q 3050 2419 3304 2112 
Q 3559 1806 3559 1356 
Q 3559 666 3084 287 
Q 2609 -91 1734 -91 
Q 1441 -91 1130 -33 
Q 819 25 488 141 
L 488 750 
Q 750 597 1062 519 
Q 1375 441 1716 441 
Q 2309 441 2620 675 
Q 2931 909 2931 1356 
Q 2931 1769 2642 2001 
Q 2353 2234 1838 2234 
L 1294 2234 
L 1294 2753 
L 1863 2753 
Q 2328 2753 2575 2939 
Q 2822 3125 2822 3475 
Q 2822 3834 2567 4026 
Q 2313 4219 1838 4219 
Q 1578 4219 1281 4162 
Q 984 4106 628 3988 
L 628 4550 
Q 988 4650 1302 4700 
Q 1616 4750 1894 4750 
Q 2613 4750 3031 4423 
Q 3450 4097 3450 3541 
Q 3450 3153 3228 2886 
Q 3006 2619 2597 2516 
z
" transform="scale(0.015625)"/>
       </defs>
       <use xlink:href="#DejaVuSans-33"/>
       <use xlink:href="#DejaVuSans-30" x="63.623047"/>
      </g>
     </g>
    </g>
    <g id="text_22">
     <!-- time step -->
     <g transform="translate(425.412031 485.754688) scale(0.1 -0.1)">
      <use xlink:href="#DejaVuSans-74"/>
      <use xlink:href="#DejaVuSans-69" x="39.208984"/>
      <use xlink:href="#DejaVuSans-6d" x="66.992188"/>
      <use xlink:href="#DejaVuSans-65" x="164.404297"/>
      <use xlink:href="#DejaVuSans-20" x="225.927734"/>
      <use xlink:href="#DejaVuSans-73" x="257.714844"/>
      <use xlink:href="#DejaVuSans-74" x="309.814453"/>
      <use xlink:href="#DejaVuSans-65" x="349.023438"/>
      <use xlink:href="#DejaVuSans-70" x="410.546875"/>
     </g>
    </g>
   </g>
   <g id="matplotlib.axis_4">
    <g id="ytick_7">
     <g id="line2d_34">
      <g>
       <use xlink:href="#me7dcd6138f" x="48.982813" y="440.214521" style="stroke: #000000; stroke-width: 0.8"/>
      </g>
     </g>
     <g id="text_23">
      <!-- −20 -->
      <g transform="translate(20.878125 444.01374) scale(0.1 -0.1)">
       <defs>
        <path id="DejaVuSans-2212" d="M 678 2272 
L 4684 2272 
L 4684 1741 
L 678 1741 
L 678 2272 
z
" transform="scale(0.015625)"/>
       </defs>
       <use xlink:href="#DejaVuSans-2212"/>
       <use xlink:href="#DejaVuSans-32" x="83.789062"/>
       <use xlink:href="#DejaVuSans-30" x="147.412109"/>
      </g>
     </g>
    </g>
    <g id="ytick_8">
     <g id="line2d_35">
      <g>
       <use xlink:href="#me7dcd6138f" x="48.982813" y="414.350258" style="stroke: #000000; stroke-width: 0.8"/>
      </g>
     </g>
     <g id="text_24">
      <!-- −15 -->
      <g transform="translate(20.878125 418.149477) scale(0.1 -0.1)">
       <use xlink:href="#DejaVuSans-2212"/>
       <use xlink:href="#DejaVuSans-31" x="83.789062"/>
       <use xlink:href="#DejaVuSans-35" x="147.412109"/>
      </g>
     </g>
    </g>
    <g id="ytick_9">
     <g id="line2d_36">
      <g>
       <use xlink:href="#me7dcd6138f" x="48.982813" y="388.485996" style="stroke: #000000; stroke-width: 0.8"/>
      </g>
     </g>
     <g id="text_25">
      <!-- −10 -->
      <g transform="translate(20.878125 392.285215) scale(0.1 -0.1)">
       <use xlink:href="#DejaVuSans-2212"/>
       <use xlink:href="#DejaVuSans-31" x="83.789062"/>
       <use xlink:href="#DejaVuSans-30" x="147.412109"/>
      </g>
     </g>
    </g>
    <g id="ytick_10">
     <g id="line2d_37">
      <g>
       <use xlink:href="#me7dcd6138f" x="48.982813" y="362.621733" style="stroke: #000000; stroke-width: 0.8"/>
      </g>
     </g>
     <g id="text_26">
      <!-- −5 -->
      <g transform="translate(27.240625 366.420952) scale(0.1 -0.1)">
       <use xlink:href="#DejaVuSans-2212"/>
       <use xlink:href="#DejaVuSans-35" x="83.789062"/>
      </g>
     </g>
    </g>
    <g id="ytick_11">
     <g id="line2d_38">
      <g>
       <use xlink:href="#me7dcd6138f" x="48.982813" y="336.757471" style="stroke: #000000; stroke-width: 0.8"/>
      </g>
     </g>
     <g id="text_27">
      <!-- 0 -->
      <g transform="translate(35.620313 340.55669) scale(0.1 -0.1)">
       <use xlink:href="#DejaVuSans-30"/>
      </g>
     </g>
    </g>
    <g id="text_28">
     <!-- cumulative IPS estimate -->
     <g transform="translate(14.798438 450.653854) rotate(-90) scale(0.1 -0.1)">
      <defs>
       <path id="DejaVuSans-49" d="M 628 4666 
L 1259 4666 
L 1259 0 
L 628 0 
L 628 4666 
z
" transform="scale(0.015625)"/>
       <path id="DejaVuSans-50" d="M 1259 4147 
L 1259 2394 
L 2053 2394 
Q 2494 2394 2734 2622 
Q 2975 2850 2975 3272 
Q 2975 3691 2734 3919 
Q 2494 4147 2053 4147 
L 1259 4147 
z
M 628 4666 
L 2053 4666 
Q 2838 4666 3239 4311 
Q 3641 3956 3641 3272 
Q 3641 2581 3239 2228 
Q 2838 1875 2053 1875 
L 1259 1875 
L 1259 0 
L 628 0 
L 628 4666 
z
" transform="scale(0.015625)"/>
       <path id="DejaVuSans-53" d="M 3425 4513 
L 3425 3897 
Q 3066 4069 2747 4153 
Q 2428 4238 2131 4238 
Q 1616 4238 1336 4038 
Q 1056 3838 1056 3469 
Q 1056 3159 1242 3001 
Q 1428 2844 1947 2747 
L 2328 2669 
Q 3034 2534 3370 2195 
Q 3706 1856 3706 1288 
Q 3706 609 3251 259 
Q 2797 -91 1919 -91 
Q 1588 -91 1214 -16 
Q 841 59 441 206 
L 441 856 
Q 825 641 1194 531 
Q 1563 422 1919 422 
Q 2459 422 2753 634 
Q 3047 847 3047 1241 
Q 3047 1584 2836 1778 
Q 2625 1972 2144 2069 
L 1759 2144 
Q 1053 2284 737 2584 
Q 422 2884 422 3419 
Q 422 4038 858 4394 
Q 1294 4750 2059 4750 
Q 2388 4750 2728 4690 
Q 3069 4631 3425 4513 
z
" transform="scale(0.015625)"/>
      </defs>
      <use xlink:href="#DejaVuSans-63"/>
      <use xlink:href="#DejaVuSans-75" x="54.980469"/>
      <use xlink:href="#DejaVuSans-6d" x="118.359375"/>
      <use xlink:href="#DejaVuSans-75" x="215.771484"/>
      <use xlink:href="#DejaVuSans-6c" x="279.150391"/>
      <use xlink:href="#DejaVuSans-61" x="306.933594"/>
      <use xlink:href="#DejaVuSans-74" x="368.212891"/>
      <use xlink:href="#DejaVuSans-69" x="407.421875"/>
      <use xlink:href="#DejaVuSans-76" x="435.205078"/>
      <use xlink:href="#DejaVuSans-65" x="494.384766"/>
      <use xlink:href="#DejaVuSans-20" x="555.908203"/>
      <use xlink:href="#DejaVuSans-49" x="587.695312"/>
      <use xlink:href="#DejaVuSans-50" x="617.1875"/>
      <use xlink:href="#DejaVuSans-53" x="677.490234"/>
      <use xlink:href="#DejaVuSans-20" x="740.966797"/>
      <use xlink:href="#DejaVuSans-65" x="772.753906"/>
      <use xlink:href="#DejaVuSans-73" x="834.277344"/>
      <use xlink:href="#DejaVuSans-74" x="886.376953"/>
      <use xlink:href="#DejaVuSans-69" x="925.585938"/>
      <use xlink:href="#DejaVuSans-6d" x="953.369141"/>
      <use xlink:href="#DejaVuSans-61" x="1050.78125"/>
      <use xlink:href="#DejaVuSans-74" x="1112.060547"/>
      <use xlink:href="#DejaVuSans-65" x="1151.269531"/>
     </g>
    </g>
   </g>
   <g id="line2d_39">
    <path d="M 85.358267 336.757471 
L 107.403997 336.757471 
L 129.449727 336.757471 
L 151.495457 336.757471 
L 173.541187 336.757471 
L 195.586917 336.757471 
L 217.632647 336.757471 
L 239.678377 336.757471 
L 261.724107 336.757471 
L 283.769837 336.757471 
L 305.815567 336.757471 
L 327.861297 336.757471 
L 349.907027 336.757471 
L 371.952757 336.757471 
L 393.998487 336.757471 
L 416.044217 336.757471 
L 438.089947 336.757471 
L 460.135678 336.757471 
L 482.181408 337.25907 
L 504.227138 337.731604 
L 526.272868 328.684489 
L 548.318598 353.24082 
L 570.364328 374.694481 
L 592.410058 393.292505 
L 614.455788 409.190473 
L 636.501518 422.485236 
L 658.547248 433.236417 
L 680.592978 441.480298 
L 702.638708 447.238675 
L 724.684438 450.524445 
L 746.730168 451.345095 
L 768.775898 451.345095 
L 790.821628 451.345095 
L 812.867358 451.345095 
" clip-path="url(#pc8cd9c131c)" style="fill: none; stroke: #1f77b4; stroke-width: 1.5; stroke-linecap: square"/>
   </g>
   <g id="line2d_40">
    <path d="M 85.358267 336.757471 
L 107.403997 336.757471 
L 129.449727 336.757471 
L 151.495457 336.757471 
L 173.541187 336.757471 
L 195.586917 336.757471 
L 217.632647 336.757471 
L 239.678377 336.757471 
L 261.724107 336.757471 
L 283.769837 336.757471 
L 305.815567 336.757471 
L 327.861297 336.757471 
L 349.907027 336.757471 
L 371.952757 336.757471 
L 393.998487 336.757471 
L 416.044217 336.757471 
L 438.089947 336.757471 
L 460.135678 336.757471 
L 482.181408 337.016114 
L 504.227138 337.274756 
L 526.272868 332.101904 
L 548.318598 346.585891 
L 570.364328 359.518022 
L 592.410058 370.898297 
L 614.455788 380.726717 
L 636.501518 389.003281 
L 658.547248 395.727989 
L 680.592978 400.900842 
L 702.638708 404.521839 
L 724.684438 406.59098 
L 746.730168 407.108265 
L 768.775898 407.108265 
L 790.821628 407.108265 
L 812.867358 407.108265 
" clip-path="url(#pc8cd9c131c)" style="fill: none; stroke: #ff7f0e; stroke-width: 1.5; stroke-linecap: square"/>
   </g>
   <g id="line2d_41">
    <path d="M 482.181408 457.478125 
L 482.181408 322.551458 
" clip-path="url(#pc8cd9c131c)" style="fill: none; stroke-dasharray: 1.5,2.475; stroke-dashoffset: 0; stroke: #1f77b4; stroke-width: 1.5"/>
   </g>
   <g id="line2d_42">
    <path d="M 526.272868 457.478125 
L 526.272868 322.551458 
" clip-path="url(#pc8cd9c131c)" style="fill: none; stroke-dasharray: 1.5,2.475; stroke-dashoffset: 0; stroke: #ffa500; stroke-width: 1.5"/>
   </g>
   <g id="patch_9">
    <path d="M 48.982813 457.478125 
L 48.982813 322.551458 
" style="fill: none; stroke: #000000; stroke-width: 0.8; stroke-linejoin: miter; stroke-linecap: square"/>
   </g>
   <g id="patch_10">
    <path d="M 849.242813 457.478125 
L 849.242813 322.551458 
" style="fill: none; stroke: #000000; stroke-width: 0.8; stroke-linejoin: miter; stroke-linecap: square"/>
   </g>
   <g id="patch_11">
    <path d="M 48.982813 457.478125 
L 849.242813 457.478125 
" style="fill: none; stroke: #000000; stroke-width: 0.8; stroke-linejoin: miter; stroke-linecap: square"/>
   </g>
   <g id="patch_12">
    <path d="M 48.982813 322.551458 
L 849.242813 322.551458 
" style="fill: none; stroke: #000000; stroke-width: 0.8; stroke-linejoin: miter; stroke-linecap: square"/>
   </g>
   <g id="text_29">
    <!-- cumulative IPS: naive (using logged data) vs corrected (using augmented state to fix mismatch) -->
    <g transform="translate(159.783438 316.551458) scale(0.12 -0.12)">
     <defs>
      <path id="DejaVuSans-78" d="M 3513 3500 
L 2247 1797 
L 3578 0 
L 2900 0 
L 1881 1375 
L 863 0 
L 184 0 
L 1544 1831 
L 300 3500 
L 978 3500 
L 1906 2253 
L 2834 3500 
L 3513 3500 
z
" transform="scale(0.015625)"/>
     </defs>
     <use xlink:href="#DejaVuSans-63"/>
     <use xlink:href="#DejaVuSans-75" x="54.980469"/>
     <use xlink:href="#DejaVuSans-6d" x="118.359375"/>
     <use xlink:href="#DejaVuSans-75" x="215.771484"/>
     <use xlink:href="#DejaVuSans-6c" x="279.150391"/>
     <use xlink:href="#DejaVuSans-61" x="306.933594"/>
     <use xlink:href="#DejaVuSans-74" x="368.212891"/>
     <use xlink:href="#DejaVuSans-69" x="407.421875"/>
     <use xlink:href="#DejaVuSans-76" x="435.205078"/>
     <use xlink:href="#DejaVuSans-65" x="494.384766"/>
     <use xlink:href="#DejaVuSans-20" x="555.908203"/>
     <use xlink:href="#DejaVuSans-49" x="587.695312"/>
     <use xlink:href="#DejaVuSans-50" x="617.1875"/>
     <use xlink:href="#DejaVuSans-53" x="677.490234"/>
     <use xlink:href="#DejaVuSans-3a" x="740.966797"/>
     <use xlink:href="#DejaVuSans-20" x="774.658203"/>
     <use xlink:href="#DejaVuSans-6e" x="806.445312"/>
     <use xlink:href="#DejaVuSans-61" x="869.824219"/>
     <use xlink:href="#DejaVuSans-69" x="931.103516"/>
     <use xlink:href="#DejaVuSans-76" x="958.886719"/>
     <use xlink:href="#DejaVuSans-65" x="1018.066406"/>
     <use xlink:href="#DejaVuSans-20" x="1079.589844"/>
     <use xlink:href="#DejaVuSans-28" x="1111.376953"/>
     <use xlink:href="#DejaVuSans-75" x="1150.390625"/>
     <use xlink:href="#DejaVuSans-73" x="1213.769531"/>
     <use xlink:href="#DejaVuSans-69" x="1265.869141"/>
     <use xlink:href="#DejaVuSans-6e" x="1293.652344"/>
     <use xlink:href="#DejaVuSans-67" x="1357.03125"/>
     <use xlink:href="#DejaVuSans-20" x="1420.507812"/>
     <use xlink:href="#DejaVuSans-6c" x="1452.294922"/>
     <use xlink:href="#DejaVuSans-6f" x="1480.078125"/>
     <use xlink:href="#DejaVuSans-67" x="1541.259766"/>
     <use xlink:href="#DejaVuSans-67" x="1604.736328"/>
     <use xlink:href="#DejaVuSans-65" x="1668.212891"/>
     <use xlink:href="#DejaVuSans-64" x="1729.736328"/>
     <use xlink:href="#DejaVuSans-20" x="1793.212891"/>
     <use xlink:href="#DejaVuSans-64" x="1825"/>
     <use xlink:href="#DejaVuSans-61" x="1888.476562"/>
     <use xlink:href="#DejaVuSans-74" x="1949.755859"/>
     <use xlink:href="#DejaVuSans-61" x="1988.964844"/>
     <use xlink:href="#DejaVuSans-29" x="2050.244141"/>
     <use xlink:href="#DejaVuSans-20" x="2089.257812"/>
     <use xlink:href="#DejaVuSans-76" x="2121.044922"/>
     <use xlink:href="#DejaVuSans-73" x="2180.224609"/>
     <use xlink:href="#DejaVuSans-20" x="2232.324219"/>
     <use xlink:href="#DejaVuSans-63" x="2264.111328"/>
     <use xlink:href="#DejaVuSans-6f" x="2319.091797"/>
     <use xlink:href="#DejaVuSans-72" x="2380.273438"/>
     <use xlink:href="#DejaVuSans-72" x="2419.636719"/>
     <use xlink:href="#DejaVuSans-65" x="2458.5"/>
     <use xlink:href="#DejaVuSans-63" x="2520.023438"/>
     <use xlink:href="#DejaVuSans-74" x="2575.003906"/>
     <use xlink:href="#DejaVuSans-65" x="2614.212891"/>
     <use xlink:href="#DejaVuSans-64" x="2675.736328"/>
     <use xlink:href="#DejaVuSans-20" x="2739.212891"/>
     <use xlink:href="#DejaVuSans-28" x="2771"/>
     <use xlink:href="#DejaVuSans-75" x="2810.013672"/>
     <use xlink:href="#DejaVuSans-73" x="2873.392578"/>
     <use xlink:href="#DejaVuSans-69" x="2925.492188"/>
     <use xlink:href="#DejaVuSans-6e" x="2953.275391"/>
     <use xlink:href="#DejaVuSans-67" x="3016.654297"/>
     <use xlink:href="#DejaVuSans-20" x="3080.130859"/>
     <use xlink:href="#DejaVuSans-61" x="3111.917969"/>
     <use xlink:href="#DejaVuSans-75" x="3173.197266"/>
     <use xlink:href="#DejaVuSans-67" x="3236.576172"/>
     <use xlink:href="#DejaVuSans-6d" x="3300.052734"/>
     <use xlink:href="#DejaVuSans-65" x="3397.464844"/>
     <use xlink:href="#DejaVuSans-6e" x="3458.988281"/>
     <use xlink:href="#DejaVuSans-74" x="3522.367188"/>
     <use xlink:href="#DejaVuSans-65" x="3561.576172"/>
     <use xlink:href="#DejaVuSans-64" x="3623.099609"/>
     <use xlink:href="#DejaVuSans-20" x="3686.576172"/>
     <use xlink:href="#DejaVuSans-73" x="3718.363281"/>
     <use xlink:href="#DejaVuSans-74" x="3770.462891"/>
     <use xlink:href="#DejaVuSans-61" x="3809.671875"/>
     <use xlink:href="#DejaVuSans-74" x="3870.951172"/>
     <use xlink:href="#DejaVuSans-65" x="3910.160156"/>
     <use xlink:href="#DejaVuSans-20" x="3971.683594"/>
     <use xlink:href="#DejaVuSans-74" x="4003.470703"/>
     <use xlink:href="#DejaVuSans-6f" x="4042.679688"/>
     <use xlink:href="#DejaVuSans-20" x="4103.861328"/>
     <use xlink:href="#DejaVuSans-66" x="4135.648438"/>
     <use xlink:href="#DejaVuSans-69" x="4170.853516"/>
     <use xlink:href="#DejaVuSans-78" x="4198.636719"/>
     <use xlink:href="#DejaVuSans-20" x="4257.816406"/>
     <use xlink:href="#DejaVuSans-6d" x="4289.603516"/>
     <use xlink:href="#DejaVuSans-69" x="4387.015625"/>
     <use xlink:href="#DejaVuSans-73" x="4414.798828"/>
     <use xlink:href="#DejaVuSans-6d" x="4466.898438"/>
     <use xlink:href="#DejaVuSans-61" x="4564.310547"/>
     <use xlink:href="#DejaVuSans-74" x="4625.589844"/>
     <use xlink:href="#DejaVuSans-63" x="4664.798828"/>
     <use xlink:href="#DejaVuSans-68" x="4719.779297"/>
     <use xlink:href="#DejaVuSans-29" x="4783.158203"/>
    </g>
   </g>
   <g id="legend_2">
    <g id="patch_13">
     <path d="M 55.982813 359.907708 
L 236.0625 359.907708 
Q 238.0625 359.907708 238.0625 357.907708 
L 238.0625 329.551458 
Q 238.0625 327.551458 236.0625 327.551458 
L 55.982813 327.551458 
Q 53.982813 327.551458 53.982813 329.551458 
L 53.982813 357.907708 
Q 53.982813 359.907708 55.982813 359.907708 
z
" style="fill: #ffffff; opacity: 0.8; stroke: #cccccc; stroke-linejoin: miter"/>
    </g>
    <g id="line2d_43">
     <path d="M 57.982813 335.649896 
L 67.982813 335.649896 
L 77.982813 335.649896 
" style="fill: none; stroke: #1f77b4; stroke-width: 1.5; stroke-linecap: square"/>
    </g>
    <g id="text_30">
     <!-- naive IPS (uncorrected probs) -->
     <g transform="translate(85.982813 339.149896) scale(0.1 -0.1)">
      <use xlink:href="#DejaVuSans-6e"/>
      <use xlink:href="#DejaVuSans-61" x="63.378906"/>
      <use xlink:href="#DejaVuSans-69" x="124.658203"/>
      <use xlink:href="#DejaVuSans-76" x="152.441406"/>
      <use xlink:href="#DejaVuSans-65" x="211.621094"/>
      <use xlink:href="#DejaVuSans-20" x="273.144531"/>
      <use xlink:href="#DejaVuSans-49" x="304.931641"/>
      <use xlink:href="#DejaVuSans-50" x="334.423828"/>
      <use xlink:href="#DejaVuSans-53" x="394.726562"/>
      <use xlink:href="#DejaVuSans-20" x="458.203125"/>
      <use xlink:href="#DejaVuSans-28" x="489.990234"/>
      <use xlink:href="#DejaVuSans-75" x="529.003906"/>
      <use xlink:href="#DejaVuSans-6e" x="592.382812"/>
      <use xlink:href="#DejaVuSans-63" x="655.761719"/>
      <use xlink:href="#DejaVuSans-6f" x="710.742188"/>
      <use xlink:href="#DejaVuSans-72" x="771.923828"/>
      <use xlink:href="#DejaVuSans-72" x="811.287109"/>
      <use xlink:href="#DejaVuSans-65" x="850.150391"/>
      <use xlink:href="#DejaVuSans-63" x="911.673828"/>
      <use xlink:href="#DejaVuSans-74" x="966.654297"/>
      <use xlink:href="#DejaVuSans-65" x="1005.863281"/>
      <use xlink:href="#DejaVuSans-64" x="1067.386719"/>
      <use xlink:href="#DejaVuSans-20" x="1130.863281"/>
      <use xlink:href="#DejaVuSans-70" x="1162.650391"/>
      <use xlink:href="#DejaVuSans-72" x="1226.126953"/>
      <use xlink:href="#DejaVuSans-6f" x="1264.990234"/>
      <use xlink:href="#DejaVuSans-62" x="1326.171875"/>
      <use xlink:href="#DejaVuSans-73" x="1389.648438"/>
      <use xlink:href="#DejaVuSans-29" x="1441.748047"/>
     </g>
    </g>
    <g id="line2d_44">
     <path d="M 57.982813 350.328021 
L 67.982813 350.328021 
L 77.982813 350.328021 
" style="fill: none; stroke: #ff7f0e; stroke-width: 1.5; stroke-linecap: square"/>
    </g>
    <g id="text_31">
     <!-- corrected IPS (augmented z) -->
     <g transform="translate(85.982813 353.828021) scale(0.1 -0.1)">
      <defs>
       <path id="DejaVuSans-7a" d="M 353 3500 
L 3084 3500 
L 3084 2975 
L 922 459 
L 3084 459 
L 3084 0 
L 275 0 
L 275 525 
L 2438 3041 
L 353 3041 
L 353 3500 
z
" transform="scale(0.015625)"/>
      </defs>
      <use xlink:href="#DejaVuSans-63"/>
      <use xlink:href="#DejaVuSans-6f" x="54.980469"/>
      <use xlink:href="#DejaVuSans-72" x="116.162109"/>
      <use xlink:href="#DejaVuSans-72" x="155.525391"/>
      <use xlink:href="#DejaVuSans-65" x="194.388672"/>
      <use xlink:href="#DejaVuSans-63" x="255.912109"/>
      <use xlink:href="#DejaVuSans-74" x="310.892578"/>
      <use xlink:href="#DejaVuSans-65" x="350.101562"/>
      <use xlink:href="#DejaVuSans-64" x="411.625"/>
      <use xlink:href="#DejaVuSans-20" x="475.101562"/>
      <use xlink:href="#DejaVuSans-49" x="506.888672"/>
      <use xlink:href="#DejaVuSans-50" x="536.380859"/>
      <use xlink:href="#DejaVuSans-53" x="596.683594"/>
      <use xlink:href="#DejaVuSans-20" x="660.160156"/>
      <use xlink:href="#DejaVuSans-28" x="691.947266"/>
      <use xlink:href="#DejaVuSans-61" x="730.960938"/>
      <use xlink:href="#DejaVuSans-75" x="792.240234"/>
      <use xlink:href="#DejaVuSans-67" x="855.619141"/>
      <use xlink:href="#DejaVuSans-6d" x="919.095703"/>
      <use xlink:href="#DejaVuSans-65" x="1016.507812"/>
      <use xlink:href="#DejaVuSans-6e" x="1078.03125"/>
      <use xlink:href="#DejaVuSans-74" x="1141.410156"/>
      <use xlink:href="#DejaVuSans-65" x="1180.619141"/>
      <use xlink:href="#DejaVuSans-64" x="1242.142578"/>
      <use xlink:href="#DejaVuSans-20" x="1305.619141"/>
      <use xlink:href="#DejaVuSans-7a" x="1337.40625"/>
      <use xlink:href="#DejaVuSans-29" x="1389.896484"/>
     </g>
    </g>
   </g>
  </g>
 </g>
 <defs>
  <clipPath id="pd52d2db359">
   <rect x="48.982813" y="22.318125" width="800.26" height="269.853333"/>
  </clipPath>
  <clipPath id="pc8cd9c131c">
   <rect x="48.982813" y="322.551458" width="800.26" height="134.926667"/>
  </clipPath>
 </defs>
</svg>
